# xmcd CD database file
#
# Track frame offsets:
#	150
#	5186
#	22951
#	40726
#	57226
#	65360
#	79195
#	115795
#	129618
#	137328
#	150528
#	184803
#	205391
#	224891
#	236891
#	248891
#	253946
#	266464
#	299734
#	321526
#	355014
#
# Disc length: 4797 seconds
#
# Revision: 0
# Processed by: cddbd v1.5.1PL0 Copyright (c) Steve Scherf et al.
# Submitted via: CDex 1.51
#
DISCID=4a12bb15
DTITLE=Greenman - VV Summer Swap 2005
DYEAR=2005
DGENRE=Jazz
TTITLE0=Maru And Mikael - Riff 1
TTITLE1=The Otto Donner Treatment - Two Guitars?
TTITLE2=Osanna - Prelude
TTITLE3=Svanfridur - Finido
TTITLE4=Czerwone Gitary - Coda
TTITLE5=The Edgar Boughton Band - The Birth
TTITLE6=Breakout - Karate
TTITLE7=Wynder K. Frog - I'm A Man
TTITLE8=Spooky Tooth - Waitin' For The Wind
TTITLE9=Pesky Gee - Where Is My Mind
TTITLE10=Uni Sono - Iltatahti
TTITLE11=Juhani Aaltonen and Otto DOnner - Ochtusen, Tusen Strala Ock
TTITLE12=Mikis Theodorakis - On The Streets
TTITLE13=Jukka Tolonen - The Hook
TTITLE14=A Theme By Braun Astonette
TTITLE15=Kenny Clare - Jazz Drum Rhythms vs. Journey Into Sound
TTITLE16=Chris Woods - Mule Walk
TTITLE17=Blues Section - Football
TTITLE18=Uni Sono - Jedi And Rekku
TTITLE19=Jukka Tolonen - Aurora Borealis
TTITLE20=Maru And Mikael - Riff 2
EXTD=YEAR: 2005
EXTT0=
EXTT1=
EXTT2=
EXTT3=
EXTT4=
EXTT5=
EXTT6=
EXTT7=
EXTT8=
EXTT9=
EXTT10=
EXTT11=
EXTT12=
EXTT13=
EXTT14=
EXTT15=
EXTT16=
EXTT17=
EXTT18=
EXTT19=
EXTT20=
PLAYORDER=
